<svg xmlns="http://www.w3.org/2000/svg" xml:space="preserve" width="800" height="800" viewBox="0 0 512 400"><path d="M221.99 308.864h281.658c6.43 0 10.424-6.949 7.229-12.5l-68.153-118.035-18.73 27.776-30.811-45.669-30.812 45.669-30.831-45.669-8.447 12.52-22.365 33.148-18.232-27.038-67.734 117.296c-3.196 5.553.817 12.502 7.228 12.502z" style="fill:#4b7282"/><path d="m442.728 178.358-18.754 27.731-30.79-45.62-30.79 45.62-30.857-45.62-8.446 12.502-18.288 27.133-4.056 5.985-18.221-27 5.054-8.844 2.793-4.788 14.165-24.606 46.884-81.199c1.795-3.059 4.456-5.054 7.448-5.985 5.586-1.729 12.037.266 15.362 5.985L387 81.731l48.28 83.726 7.448 12.901z" style="fill:#ededec"/><path d="M401.298 308.835h-179.29c-6.451 0-10.441-6.916-7.249-12.502l67.766-117.243 5.054-8.844 2.793-4.788 14.165-24.606 5.985 10.374 12.569 21.746 78.207 135.863z" style="opacity:.07;fill:#040000"/><path d="M350.158 308.835H10.066c-7.315 0-11.97-7.382-9.31-13.899.2-.399.333-.798.599-1.197l81.731-141.583 22.079 32.653 37.175-55.13 37.241 55.13 37.175-55.13 37.241 55.13 22.611-33.584 10.973 19.02 17.224 29.859 54.066 93.634c3.856 6.718-.933 15.097-8.713 15.097z" style="fill:#4b7282"/><path d="m276.607 151.225-22.611 33.584-37.241-55.13-37.175 55.13-37.241-55.13-21.813 32.32-15.362 22.811-22.079-32.653 9.51-16.426.599-1.064 45.022-78.007 28.13-48.679c6.118-10.64 21.414-10.64 27.532 0l5.453 9.443 68.297 118.307 8.979 15.494z" style="fill:#fff"/><path d="m423.993 206.105 9.981-14.801-9.996 14.78zM362.369 206.105l.018-.026-18.925-27.979zM105.164 184.809l37.175-55.13-21.813 32.32z" style="fill:none"/><path d="M267.628 135.73 199.331 17.423l-5.453-9.443c-6.118-10.64-21.414-10.64-27.532 0l-28.13 48.679-45.022 78.007-.599 1.064-9.51 16.426-81.73 141.583c-.266.399-.399.798-.599 1.197-2.66 6.517 1.995 13.899 9.31 13.899h91.53l168.627-168.627-2.595-4.478zm-162.464 49.079 15.362-22.811 21.813-32.32-37.175 55.131z" style="opacity:.06;fill:#fff"/></svg>